<svg width="25" height="24" viewBox="0 0 25 24" fill="none" xmlns="http://www.w3.org/2000/svg">
<path d="M6.5 7.5H12.5V9H6.5V7.5ZM6.5 4.5H15.5V6H6.5V4.5ZM6.5 1.5H15.5V3H6.5V1.5Z" fill="#A49A95"/>
<path d="M4.03325 21L8.2565 13.503L13.832 18.3705C14.0005 18.5205 14.2007 18.6305 14.4177 18.6924C14.6346 18.7543 14.8628 18.7664 15.0851 18.7279C15.3074 18.6894 15.5181 18.6013 15.7016 18.4701C15.8851 18.3388 16.0367 18.1679 16.145 17.97L21.3725 10.1678L20.1268 9.33225L14.8768 17.1683L14.8243 17.2455L9.248 12.378C9.07951 12.2289 8.87968 12.1195 8.66326 12.058C8.44684 11.9964 8.21936 11.9843 7.99762 12.0224C7.77588 12.0606 7.56554 12.1481 7.38214 12.2784C7.19873 12.4088 7.04695 12.5786 6.938 12.7755L3.5 18.8873V1.5H2V21C2.0004 21.3977 2.15856 21.779 2.43978 22.0602C2.721 22.3414 3.1023 22.4996 3.5 22.5H23V21H4.03325Z" fill="#A49A95"/>
</svg>
